<svg xmlns="http://www.w3.org/2000/svg" viewBox="0 0 1284.44 486.24"><defs><style>.cls-1{fill:#253545;}.cls-2{fill:#e64a39;}</style></defs><title>DeMi logo</title><g id="Layer_5" data-name="Layer 5"><path class="cls-1" d="M588.7,464.94c-26.44,0-45.68-13.68-43.13-37.57h15.77c-1.16,14.61,8.81,24.58,28.29,24.58s32.23-8.81,32.23-22.49c0-28.52-65.16-18.09-65.16-59.36,0-21.33,19.71-35.48,46.61-35.48,26.44,0,45.45,15.3,42.44,38.73h-15.3c1.86-15.77-10.67-25.74-28.29-25.74-16.46,0-29,8.35-29,21.8,0,30.38,64.7,19.94,64.7,59.6C637.86,451.25,617.22,464.94,588.7,464.94Z"/><path class="cls-1" d="M689.34,350.15H671.72l2.55-13.68h17.62l5.57-31.77h16.23l-5.57,31.77h35l-2.55,13.68h-35l-13.91,78.61c-2.55,15.54,1.86,20.41,16.7,20.41H723.2l-2.55,13.91H703.25c-22,0-32.23-9-27.83-34.32Z"/><path class="cls-1" d="M857,463.08H840.76l3.94-22.26c-10.67,16-28.75,24.35-47.31,24.35-28.75,0-48.47-17.62-42-54.73l13-74h16l-12.75,72.12c-4.87,28.06,7.88,42.44,31.07,42.44,22.73,0,41.51-13.91,47.54-42.44L863,336.47h16.23Z"/><path class="cls-1" d="M970.16,334.61c22.73,0,39.42,12.52,44.75,29.22l12.75-72.35h16.23l-30.38,171.6H997.29l5.1-28.29A65.17,65.17,0,0,1,947,464.94c-34.78,0-56.12-25.74-49.16-65.39S935.14,334.61,970.16,334.61Zm.23,14.15c-26.44,0-50.32,18.55-55.89,50.78-5.8,32,11.36,51.25,37.8,51.25,26,0,50.55-19.48,56.12-51C1014.21,368.24,996.36,348.76,970.39,348.76Z"/><path class="cls-1" d="M1072.88,336.47h16.23l-22.26,126.61h-16.23Zm2.78-35.94a14.15,14.15,0,0,1,13.91-11.83c6.49,0,10.9,4.87,9.51,11.83-1.16,7-7.19,12.06-13.68,12.06C1078.68,312.58,1074.5,307.48,1075.66,300.52Z"/><path class="cls-1" d="M1159.37,464.94c-31.77,0-53.1-20.17-53.1-51.94,0-43.13,31.77-78.38,75.6-78.38,31.77,0,53.33,20.17,53.33,51.94C1235.2,429.92,1202.74,464.94,1159.37,464.94Zm1.86-13.68c33.86,0,57.28-29.91,57.28-63.77,0-26.44-17.86-39-39-39-33.86,0-56.58,29.91-56.58,63.77C1123,438.5,1140.36,451.25,1161.23,451.25Z"/><g id="Základ_loga_s_vyrezom" data-name="Základ loga s vyrezom"><path class="cls-2" d="M121.79,223.84,15.89,329.75a243.61,243.61,0,0,1,23.24-219l82.66,82.66a21.5,21.5,0,0,1,0,30.4Z"/><path class="cls-2" d="M393.73,324.46l52.43,52.43a243.21,243.21,0,0,1-342.11,65.68L222.17,324.46a21.5,21.5,0,0,1,30.39,0,78.36,78.36,0,0,0,110.79,0A21.5,21.5,0,0,1,393.73,324.46Z"/><path class="cls-1" d="M486.25,243.12a242.4,242.4,0,0,1-13.47,80l-38.85-38.85a78.43,78.43,0,0,0-110.79,0,21.49,21.49,0,0,1-30.39,0,78.43,78.43,0,0,0-110.79,0L61.48,404.74a246.3,246.3,0,0,1-17.75-22.46L162,264a78.32,78.32,0,0,0,0-110.78L75.63,66.9A242.29,242.29,0,0,1,243.13,0C377.39,0,486.25,108.85,486.25,243.12Z"/></g><g id="N8pis"><path class="cls-2" d="M735.85,156.34c0,62.8-43.48,106-111.11,106H545.34V50.37h79.41C692.38,50.37,735.85,93.24,735.85,156.34ZM621.43,217.63c38.95,0,61.89-22.34,61.89-61.29s-22.95-61.89-61.89-61.89H597V217.63Z"/><path class="cls-2" d="M839.71,264.73c-49.51,0-85.14-33.21-85.14-86.65s35-86.65,85.14-86.65c49.21,0,83.93,32.61,83.93,83.93a130.53,130.53,0,0,1-.91,15.1H805.9c1.81,22,15.4,32.31,32,32.31,14.49,0,22.64-7.25,26.87-16.3h54.95C911.57,239.37,881.68,264.73,839.71,264.73Zm-33.51-103h64.61c0-18.42-14.49-29-31.7-29C822.2,132.8,809.22,143.06,806.2,161.78Z"/><path class="cls-2" d="M950.82,50.37h61l59.48,146.73,58.87-146.73h60.69V262.32h-51.63V135.21l-47.4,127.11h-41.67l-47.7-127.41V262.32H950.82Z"/><path class="cls-2" d="M1223.15,48.56c0-15.7,12.38-28.08,30.8-28.08,18.11,0,30.49,12.38,30.49,28.08,0,15.4-12.38,27.78-30.49,27.78C1235.53,76.34,1223.15,64,1223.15,48.56ZM1228,93.85h51.63V262.32H1228Z"/></g></g></svg>
