<svg xmlns="http://www.w3.org/2000/svg" viewBox="0 0 486.25 486.24"><defs><style>.cls-1{fill:#e64a39;}.cls-2{fill:#464646;}</style></defs><title>Znak</title><g id="Layer_5" data-name="Layer 5"><g id="Základ_loga_s_vyrezom" data-name="Základ loga s vyrezom"><path class="cls-1" d="M121.79,223.84,15.89,329.75a243.61,243.61,0,0,1,23.24-219l82.66,82.66a21.5,21.5,0,0,1,0,30.4Z"/><path class="cls-1" d="M393.73,324.46l52.43,52.43a243.21,243.21,0,0,1-342.11,65.68L222.17,324.46a21.5,21.5,0,0,1,30.39,0,78.36,78.36,0,0,0,110.79,0A21.5,21.5,0,0,1,393.73,324.46Z"/><path class="cls-2" d="M486.25,243.12a242.4,242.4,0,0,1-13.47,80l-38.85-38.85a78.43,78.43,0,0,0-110.79,0,21.49,21.49,0,0,1-30.39,0,78.43,78.43,0,0,0-110.79,0L61.48,404.74a246.3,246.3,0,0,1-17.75-22.46L162,264a78.32,78.32,0,0,0,0-110.78L75.63,66.9A242.29,242.29,0,0,1,243.13,0C377.39,0,486.25,108.85,486.25,243.12Z"/></g></g></svg>